<?xml version="1.0" standalone="no"?><!-- Generator: Gravit.io --><svg xmlns="http://www.w3.org/2000/svg" xmlns:xlink="http://www.w3.org/1999/xlink" style="isolation:isolate" viewBox="0 0 16 16" width="16" height="16"><defs><clipPath id="_clipPath_36C9NZIMz7krkCDxZU4xDySPaluD40ET"><rect width="16" height="16"/></clipPath></defs><g clip-path="url(#_clipPath_36C9NZIMz7krkCDxZU4xDySPaluD40ET)"><g id="char"><path d=" M 10.127 5.368 C 9.787 5.13 9.169 4.935 8.754 4.935 L 7.246 4.935 C 6.831 4.935 6.213 5.13 5.873 5.368 L 5.852 5.383 C 5.512 5.621 5.234 6.155 5.234 6.57 L 5.234 9.493 C 5.234 9.908 5.375 10.523 5.548 10.861 C 5.721 11.198 5.919 11.474 5.988 11.474 C 6.057 11.474 6.17 11.809 6.238 12.218 L 6.744 15.256 C 6.813 15.665 7.123 16 7.434 16 L 8.566 16 C 8.877 16 9.187 15.665 9.256 15.256 L 9.762 12.218 C 9.83 11.809 9.943 11.474 10.012 11.474 C 10.081 11.474 10.279 11.198 10.452 10.861 C 10.625 10.523 10.766 9.908 10.766 9.493 L 10.766 6.57 C 10.766 6.155 10.488 5.621 10.148 5.383 L 10.127 5.368 Z " fill-rule="evenodd" fill="rgb(251,233,119)"/><path d=" M 10.195 2.245 C 10.195 3.485 9.19 4.49 7.95 4.49 C 6.71 4.49 5.705 3.485 5.705 2.245 C 5.705 1.005 6.71 0 7.95 0 C 9.19 0 10.195 1.005 10.195 2.245 Z " fill-rule="evenodd" fill="rgb(251,233,119)"/></g></g></svg>