<?xml version="1.0" standalone="no"?><!-- Generator: Gravit.io --><svg xmlns="http://www.w3.org/2000/svg" xmlns:xlink="http://www.w3.org/1999/xlink" style="isolation:isolate" viewBox="0 0 16 16" width="16" height="16"><defs><clipPath id="_clipPath_vsrR8o2FaD6W2fHDngnaoLSDvYpz62d0"><rect width="16" height="16"/></clipPath></defs><g clip-path="url(#_clipPath_vsrR8o2FaD6W2fHDngnaoLSDvYpz62d0)"><path d=" M 7.925 0.081 C 7.84 -0.006 7.708 -0.025 7.603 0.035 L 4.661 1.689 L 4.924 0.373 C 4.947 0.257 4.892 0.141 4.789 0.086 C 4.685 0.031 4.557 0.048 4.474 0.132 L 0.72 3.886 C 0.713 3.891 0.707 3.897 0.701 3.904 C 0.249 4.362 0 4.965 0 5.6 C 0 6.923 1.077 8 2.4 8 C 3.036 8 3.638 7.751 4.097 7.3 C 4.103 7.293 4.109 7.286 4.116 7.278 L 7.303 4.092 C 7.383 4.012 7.404 3.89 7.355 3.788 C 7.306 3.686 7.197 3.628 7.085 3.639 L 5.925 3.767 L 7.961 0.405 C 8.024 0.301 8.009 0.168 7.925 0.081 Z  M 2.4 7.2 C 1.516 7.2 0.8 6.484 0.8 5.6 C 0.8 4.716 1.516 4 2.4 4 C 3.284 4 4 4.716 4 5.6 C 4 6.484 3.284 7.2 2.4 7.2 Z " fill="rgb(169,179,233)"/><path d=" M 15.887 4.122 C 15.76 3.991 15.561 3.962 15.403 4.051 L 10.991 6.534 L 11.386 4.559 C 11.42 4.386 11.338 4.211 11.183 4.128 C 11.028 4.046 10.836 4.072 10.711 4.198 L 5.08 9.829 C 5.07 9.837 5.06 9.845 5.051 9.855 C 4.374 10.543 4 11.447 4 12.4 C 4 14.384 5.615 16 7.6 16 C 8.553 16 9.457 15.626 10.145 14.949 C 10.155 14.939 10.164 14.928 10.173 14.917 L 14.954 10.137 C 15.074 10.017 15.105 9.834 15.031 9.681 C 14.959 9.529 14.795 9.442 14.627 9.457 L 12.888 9.65 L 15.941 4.607 C 16.035 4.451 16.014 4.252 15.887 4.122 Z  M 7.6 14.8 C 6.274 14.8 5.2 13.725 5.2 12.4 C 5.2 11.074 6.274 10 7.6 10 C 8.925 10 10 11.074 10 12.4 C 10 13.725 8.925 14.8 7.6 14.8 Z " fill="rgb(169,179,233)"/></g></svg>